<!-- icon666.com - MILLIONS vector ICONS FREE --><svg version="1.1" id="Capa_1" xmlns="http://www.w3.org/2000/svg" xmlns:xlink="http://www.w3.org/1999/xlink" x="0px" y="0px" viewBox="0 0 191.147 191.147" style="enable-background:new 0 0 191.147 191.147;" xml:space="preserve"><rect x="3.413" y="3.413" style="fill: rgb(255, 255, 255);" width="13.653" height="184.32" fill="#997843"></rect><path d="M17.067,191.147H3.413c-1.884,0-3.413-1.529-3.413-3.413V3.413C0,1.529,1.529,0,3.413,0h13.653 c1.884,0,3.413,1.529,3.413,3.413v184.32C20.48,189.618,18.951,191.147,17.067,191.147z M6.827,184.32h6.827V6.827H6.827V184.32z" fill="#000000"></path><rect x="174.08" y="3.413" style="fill: rgb(255, 255, 255);" width="13.653" height="184.32" fill="#997843"></rect><path d="M187.733,191.147H174.08c-1.884,0-3.413-1.529-3.413-3.413V3.413c0-1.884,1.529-3.413,3.413-3.413h13.653 c1.884,0,3.413,1.529,3.413,3.413v184.32C191.147,189.618,189.618,191.147,187.733,191.147z M177.493,184.32h6.827V6.827h-6.827 V184.32z" fill="#000000"></path><path style="fill: rgb(82, 220, 255);" d="M187.733,81.92l-29.841,4.42c-41.32,6.122-83.316,6.122-124.636,0L3.413,81.92V23.893l29.841,4.42 c41.32,6.122,83.316,6.122,124.636,0l29.843-4.42V81.92z" fill="#DDDDDD"></path><path d="M95.573,94.348c-20.989,0-41.977-1.543-62.819-4.63L2.913,85.296C1.241,85.048,0,83.611,0,81.92V23.893 c0-0.993,0.432-1.937,1.183-2.586s1.748-0.939,2.731-0.792l29.841,4.422c41.018,6.077,82.618,6.076,123.636,0l29.841-4.422 c0.981-0.148,1.976,0.143,2.731,0.792c0.751,0.649,1.183,1.592,1.183,2.586V81.92c0,1.691-1.241,3.128-2.913,3.378l-29.841,4.422 C137.55,92.805,116.562,94.348,95.573,94.348z M6.827,78.974l26.928,3.99c41.018,6.077,82.618,6.076,123.636,0l26.929-3.99V27.849 l-25.928,3.842c-41.684,6.173-83.953,6.173-125.636,0L6.827,27.849V78.974z M187.733,81.92h0.017H187.733z" fill="#000000"></path><path d="M50.746,46.973c0.532,0,1.073,0.027,1.62,0.08c0.546,0.053,1.039,0.179,1.48,0.381c0.44,0.201,0.8,0.497,1.08,0.889 s0.42,0.93,0.42,1.609c0,0.679-0.14,1.217-0.42,1.609c-0.28,0.393-0.64,0.689-1.08,0.889c-0.44,0.2-0.934,0.326-1.48,0.381 c-0.546,0.055-1.087,0.08-1.62,0.08h-4.76v5.2h2.521c0.521,0,1.053,0.02,1.601,0.06c0.548,0.039,1.039,0.154,1.48,0.34 s0.804,0.48,1.091,0.881c0.287,0.401,0.43,0.959,0.43,1.679c0,0.72-0.14,1.28-0.42,1.679s-0.64,0.693-1.08,0.881 c-0.44,0.188-0.934,0.3-1.48,0.34c-0.546,0.039-1.087,0.06-1.62,0.06h-2.521v6.361c0,0.587-0.017,1.154-0.049,1.7 c-0.032,0.546-0.147,1.036-0.34,1.469s-0.497,0.78-0.91,1.039c-0.413,0.259-0.993,0.391-1.741,0.391c-0.759,0-1.347-0.13-1.76-0.391 c-0.413-0.259-0.713-0.606-0.899-1.039c-0.186-0.433-0.297-0.923-0.329-1.469c-0.032-0.546-0.049-1.113-0.049-1.7V51.57 c0-0.573,0.017-1.133,0.049-1.679c0.032-0.546,0.143-1.036,0.329-1.469c0.186-0.433,0.486-0.783,0.899-1.05 c0.413-0.266,1-0.399,1.76-0.399L50.746,46.973L50.746,46.973z" fill="#000000"></path><path d="M59.226,51.574c0-0.573,0.031-1.133,0.09-1.679c0.06-0.546,0.2-1.036,0.42-1.469c0.22-0.433,0.55-0.783,0.99-1.05 c0.44-0.266,1.046-0.399,1.819-0.399s1.381,0.133,1.819,0.399c0.439,0.266,0.77,0.616,0.99,1.05c0.22,0.433,0.36,0.923,0.42,1.469 c0.06,0.546,0.09,1.106,0.09,1.679v18.801c0,0.587-0.027,1.154-0.08,1.7c-0.053,0.546-0.189,1.036-0.41,1.469 c-0.22,0.433-0.553,0.78-1,1.039c-0.447,0.259-1.056,0.391-1.83,0.391s-1.381-0.13-1.819-0.391c-0.439-0.261-0.77-0.606-0.99-1.039 c-0.22-0.433-0.36-0.923-0.42-1.469c-0.06-0.546-0.09-1.113-0.09-1.7L59.226,51.574L59.226,51.574z" fill="#000000"></path><path d="M87.506,66.693h0.48V50.092c0-0.427,0.027-0.829,0.08-1.21c0.053-0.381,0.171-0.71,0.35-0.99s0.447-0.503,0.8-0.671 c0.353-0.167,0.836-0.249,1.451-0.249c0.679,0,1.217,0.084,1.609,0.249c0.393,0.166,0.689,0.391,0.889,0.671 c0.2,0.28,0.326,0.609,0.381,0.99c0.055,0.381,0.08,0.783,0.08,1.21v20.28c0,0.587-0.017,1.154-0.049,1.7 c-0.032,0.546-0.14,1.036-0.321,1.469c-0.181,0.433-0.473,0.78-0.881,1.039c-0.408,0.259-0.976,0.391-1.71,0.391h-2.64 c-0.626,0-1.15-0.123-1.57-0.37c-0.42-0.247-0.77-0.546-1.05-0.899c-0.28-0.353-0.503-0.724-0.671-1.109s-0.297-0.713-0.391-0.98 l-6.04-16.36h-0.48v16.601c0,0.427-0.027,0.829-0.08,1.21c-0.053,0.381-0.171,0.71-0.35,0.99c-0.179,0.28-0.447,0.503-0.8,0.671 c-0.353,0.167-0.836,0.249-1.451,0.249c-0.693,0-1.241-0.084-1.64-0.249c-0.399-0.166-0.7-0.391-0.899-0.671 c-0.2-0.28-0.326-0.609-0.381-0.99s-0.08-0.783-0.08-1.21v-20.28c0-0.573,0.017-1.137,0.05-1.69s0.143-1.046,0.329-1.48 c0.186-0.433,0.483-0.78,0.889-1.039c0.406-0.259,0.983-0.391,1.731-0.391h2.64c0.667,0,1.21,0.13,1.63,0.391 s0.763,0.543,1.031,0.85c0.294,0.36,0.527,0.773,0.7,1.241L87.506,66.693z" fill="#000000"></path><path d="M99.746,51.574c0-0.573,0.031-1.133,0.09-1.679c0.06-0.546,0.2-1.036,0.42-1.469c0.22-0.433,0.55-0.783,0.99-1.05 c0.44-0.266,1.046-0.399,1.819-0.399c0.773,0,1.381,0.133,1.819,0.399c0.439,0.266,0.77,0.616,0.99,1.05 c0.22,0.433,0.36,0.923,0.42,1.469c0.06,0.546,0.09,1.106,0.09,1.679v18.801c0,0.587-0.027,1.154-0.08,1.7 c-0.053,0.546-0.189,1.036-0.41,1.469c-0.22,0.433-0.553,0.78-1,1.039s-1.056,0.391-1.83,0.391s-1.381-0.13-1.819-0.391 c-0.439-0.261-0.77-0.606-0.99-1.039c-0.22-0.433-0.36-0.923-0.42-1.469s-0.09-1.113-0.09-1.7L99.746,51.574L99.746,51.574z" fill="#000000"></path><path d="M117.666,54.013c0.014,0.56,0.178,1.063,0.49,1.51c0.312,0.447,0.727,0.87,1.241,1.27c0.514,0.399,1.097,0.79,1.749,1.171 c0.652,0.381,1.323,0.78,2.01,1.2c0.688,0.42,1.357,0.877,2.01,1.37s1.241,1.053,1.76,1.679s0.94,1.333,1.26,2.12 c0.319,0.787,0.493,1.679,0.521,2.679v0.16c0,1.094-0.133,2.046-0.399,2.86c-0.266,0.814-0.62,1.514-1.06,2.099 c-0.44,0.585-0.954,1.07-1.539,1.451s-1.203,0.683-1.85,0.91c-0.647,0.227-1.3,0.387-1.959,0.48c-0.659,0.092-1.283,0.147-1.87,0.16 h-0.2c-1.133,0-2.127-0.113-2.98-0.34c-0.853-0.227-1.587-0.531-2.2-0.91c-0.613-0.379-1.123-0.818-1.529-1.311 c-0.406-0.493-0.73-1.004-0.969-1.529s-0.413-1.05-0.521-1.57c-0.107-0.521-0.16-1.007-0.16-1.459c0-0.466,0.08-0.874,0.241-1.22 c0.16-0.346,0.37-0.63,0.63-0.85c0.259-0.22,0.56-0.384,0.899-0.49c0.34-0.106,0.696-0.16,1.07-0.16c0.346,0,0.703,0.053,1.07,0.16 s0.7,0.27,1,0.49c0.3,0.22,0.546,0.5,0.741,0.84s0.297,0.737,0.311,1.19c0.027,1,0.253,1.683,0.679,2.05 c0.427,0.367,1.039,0.55,1.84,0.55c0.399-0.014,0.77-0.063,1.109-0.15c0.34-0.087,0.63-0.241,0.87-0.461 c0.241-0.22,0.43-0.514,0.57-0.881s0.21-0.829,0.21-1.389c0-0.693-0.157-1.319-0.469-1.881s-0.724-1.08-1.23-1.56 c-0.507-0.48-1.087-0.937-1.741-1.37s-1.319-0.867-2-1.3s-1.343-0.887-1.99-1.36c-0.647-0.473-1.23-0.99-1.749-1.55 s-0.937-1.179-1.249-1.86c-0.312-0.681-0.476-1.454-0.49-2.319V54.17c0.014-1.427,0.203-2.613,0.57-3.56 c0.367-0.947,0.906-1.7,1.62-2.26c0.713-0.56,1.591-0.957,2.63-1.19c1.039-0.232,2.234-0.35,3.581-0.35h0.521 c1.227,0,2.266,0.133,3.12,0.399c0.853,0.266,1.563,0.606,2.13,1.021s1.014,0.881,1.34,1.399c0.326,0.519,0.57,1.033,0.73,1.539 s0.259,0.98,0.3,1.42c0.041,0.44,0.06,0.794,0.06,1.06c0,0.399-0.077,0.763-0.23,1.091s-0.36,0.604-0.62,0.829 c-0.259,0.225-0.567,0.403-0.92,0.531s-0.737,0.189-1.15,0.189c-0.321,0-0.64-0.063-0.959-0.189s-0.606-0.29-0.86-0.49 c-0.254-0.2-0.461-0.43-0.62-0.689c-0.159-0.259-0.241-0.524-0.241-0.79c0-1.094-0.196-1.853-0.59-2.28 c-0.394-0.427-0.969-0.64-1.731-0.64c-0.36,0-0.71,0.02-1.05,0.06c-0.34,0.039-0.64,0.15-0.899,0.329 c-0.259,0.179-0.466,0.457-0.62,0.829C117.748,52.801,117.666,53.333,117.666,54.013z" fill="#000000"></path><path d="M132.907,51.574c0-0.573,0.027-1.133,0.08-1.679c0.053-0.546,0.183-1.036,0.391-1.469c0.208-0.433,0.51-0.783,0.91-1.05 c0.399-0.266,0.954-0.399,1.661-0.399c0.693,0,1.244,0.133,1.65,0.399c0.406,0.266,0.713,0.616,0.92,1.05 c0.207,0.433,0.336,0.923,0.391,1.469c0.055,0.546,0.08,1.106,0.08,1.679v6.281h5.48v-6.281c0-0.573,0.027-1.133,0.08-1.679 c0.053-0.546,0.183-1.036,0.391-1.469c0.208-0.433,0.51-0.783,0.91-1.05c0.399-0.266,0.954-0.399,1.661-0.399 c0.693,0,1.244,0.133,1.65,0.399c0.406,0.266,0.713,0.616,0.92,1.05c0.207,0.433,0.336,0.923,0.391,1.469 c0.055,0.546,0.08,1.106,0.08,1.679v18.801c0,0.587-0.027,1.154-0.08,1.7c-0.053,0.546-0.183,1.036-0.391,1.469 c-0.208,0.433-0.514,0.78-0.92,1.039c-0.406,0.259-0.957,0.391-1.65,0.391c-0.707,0-1.26-0.13-1.661-0.391 c-0.401-0.261-0.703-0.606-0.91-1.039c-0.207-0.433-0.336-0.923-0.391-1.469s-0.08-1.113-0.08-1.7v-6.641h-5.48v6.641 c0,0.587-0.027,1.154-0.08,1.7c-0.053,0.546-0.183,1.036-0.391,1.469c-0.208,0.433-0.514,0.78-0.92,1.039 c-0.406,0.259-0.957,0.391-1.65,0.391c-0.707,0-1.26-0.13-1.661-0.391c-0.401-0.261-0.703-0.606-0.91-1.039 c-0.207-0.433-0.336-0.923-0.391-1.469s-0.08-1.113-0.08-1.7V51.574z" fill="#000000"></path></svg>