<svg viewBox="0 0 1306 395" fill="none" xmlns="http://www.w3.org/2000/svg">
  <path
    d="M561.258 10.7206L561.152 10.734L561.047 10.7451C559.948 10.8607 556.365 11.2871 551.295 11.8904C544.93 12.6478 536.222 13.684 527.149 14.7338L527.136 14.7353L527.123 14.7368C488.191 19.1366 435.989 26.6897 420.818 30.0324L420.792 30.0382L420.766 30.0437C381.88 38.3952 292.261 68.2652 204.283 102.39C181.703 111.156 158.094 119.722 152.142 121.464L152.034 121.496L151.925 121.525C145.723 123.189 130.075 125.785 117.165 127.265C79.2802 131.802 30.5112 139.713 16.6312 143.61L15.2318 144.022L13.781 149.298C13.7801 149.301 13.7792 149.304 13.7784 149.307C12.332 154.614 10.8423 162.662 10.3477 166.766C10.0422 170.236 10.1025 171.406 10.3015 172.435C10.5452 173.696 11.125 175.373 13.014 179.693C16.9112 188.431 18.2968 194.784 19.2953 206.195L19.2954 206.197C20.0002 214.27 20.8901 219.743 22.397 224.89C23.9109 230.06 26.1626 235.295 29.98 242.8L29.9857 242.811C34.2172 251.157 37.2697 255.269 45.6524 263.777C50.8943 269.087 53.3836 271.398 55.3207 272.766C56.8317 273.834 58.1267 274.428 61.608 275.509C65.5054 276.695 76.9868 278.745 87.1609 279.934C97.4628 281.138 118.29 283.675 133.363 285.543L133.371 285.544L133.379 285.545C149.782 287.604 157.299 288.271 161.676 287.806C163.448 287.618 164.118 287.282 164.493 287.058C165.039 286.73 165.823 286.1 167.455 284.294C168.075 283.575 169.499 281.449 171.619 277.353C173.657 273.417 176.041 268.249 178.636 262.021L178.64 262.01L178.645 261.999C184.672 247.627 188.753 238.463 192.79 231.63C197.073 224.38 201.226 219.881 206.897 214.568L206.919 214.548L206.941 214.528C220.868 201.638 239.278 192.495 257.573 189.223L257.594 189.219L257.616 189.215C265.875 187.776 278.499 187.365 290.357 187.67C302.126 187.973 314.536 189.014 322.275 190.961C360.095 200.208 390.108 235.242 401.027 278.875C404.863 293.829 408.414 300.361 413.119 304.978C413.124 304.982 413.128 304.987 413.133 304.991L414.8 306.61L467.245 307.602C467.247 307.602 467.25 307.602 467.252 307.602C519.497 308.535 733.058 311.467 901.186 313.467L901.196 313.467L969.478 314.348L970.516 313.343L970.537 313.323L970.558 313.303C974.684 309.361 977.796 304.327 983.602 287.305L983.608 287.288L983.614 287.272C991.606 264.108 996.995 252.158 1005.65 239.029L1005.67 239.008L1005.68 238.986C1016.7 222.454 1031.06 209.476 1047.98 201.165C1055.52 197.428 1062.18 194.901 1070.01 193.369C1077.68 191.87 1086.1 191.401 1097 191.334L1097.04 191.333H1097.07C1140.19 191.333 1167.79 200.183 1191.74 224.129C1204.55 236.944 1211.98 251.474 1219.42 275.715C1222.65 286.061 1225.17 292.263 1227.39 296.002C1229.42 299.412 1230.6 299.766 1231.01 299.889L1231.02 299.893L1231.07 299.907L1231.12 299.922C1232.69 300.413 1233.37 300.479 1233.83 300.484C1234.36 300.489 1235.25 300.412 1237.26 299.91C1244.08 298.126 1255.03 292.525 1266.05 285.143C1277.07 277.759 1286.48 269.715 1290.8 263.999C1292.76 261.359 1293.69 259.813 1294.21 258.649C1294.66 257.66 1294.94 256.672 1295.12 255.005C1295.18 254.291 1295.21 253.806 1295.21 253.456C1295.21 253.384 1295.21 253.322 1295.21 253.269C1294.97 252.961 1294.43 252.358 1293.28 251.336C1291.86 250.071 1289.89 248.493 1287.07 246.299L1287.05 246.285L1287.03 246.271C1286.94 246.199 1286.82 246.107 1286.68 245.997C1285.85 245.363 1284.25 244.139 1283.16 242.982C1282.33 242.1 1281.17 240.657 1280.43 238.609C1279.63 236.401 1279.57 234.206 1279.95 232.247C1280.56 229.128 1282.36 226.567 1283.25 225.304L1283.26 225.296C1284.14 224.048 1285.32 222.498 1286.65 220.759C1287 220.29 1287.37 219.808 1287.75 219.314C1292.68 212.677 1296 201.993 1296 187.333C1296 183.227 1295.84 179.861 1295.57 177.294C1295.44 176.014 1295.28 175.015 1295.13 174.273C1295.01 173.659 1294.91 173.351 1294.88 173.27C1294.5 172.441 1292.75 169.897 1284 166.324C1275.3 162.77 1261.78 159.018 1241.16 154.428L1241.13 154.422L1241.11 154.416C1220.65 149.747 1203.93 144.517 1165.83 130.882L1165.83 130.881C1157.39 127.86 1146.22 124.996 1139.19 124.043L1139.12 124.033L1139.05 124.023C1120.21 121.203 1064.31 118.538 966.128 115.863L966.118 115.863L939.689 115.117C939.204 116.199 938.732 117.499 938.388 118.685C938.21 119.297 938.094 119.787 938.028 120.124C938.013 120.202 938.003 120.263 937.996 120.306C937.96 121.953 937.851 124.509 937.01 126.996C935.93 130.186 933.717 133.105 930.136 134.828C927.252 136.215 924.24 136.429 922.144 136.467C919.873 136.508 917.223 136.334 914.379 136.1L914.337 136.096L914.295 136.092C908.165 135.535 897.551 134.172 890.479 133.084L890.471 133.082C884.889 132.219 880.548 131.434 876.433 129.913C872.213 128.354 868.703 126.198 864.484 123.408L864.478 123.403L864.471 123.399C849.902 113.732 808.867 83.683 772.611 56.091L772.603 56.0852C747.171 36.6926 733.22 26.3707 723.329 20.4989C714.139 15.0436 708.924 13.6901 700.665 12.5771L700.634 12.573L700.604 12.5687C698.729 12.3044 689.926 11.9312 676.498 11.5842C663.493 11.2481 647 10.9488 630.519 10.7325C614.037 10.5162 597.603 10.3833 584.716 10.3792C578.267 10.3771 572.74 10.4073 568.553 10.4743C566.456 10.5078 564.734 10.55 563.42 10.5999C562.763 10.6249 562.239 10.6506 561.841 10.6758C561.456 10.7 561.284 10.7179 561.26 10.7204L561.258 10.7206ZM663.551 15.3725L663.563 15.3736C690.808 17.8257 707.946 22.735 721.228 34.705L721.233 34.7098L721.239 34.7146C729.929 42.569 733.956 49.8439 742.281 69.5805L742.286 69.5921L742.29 69.6038L748.824 85.2037L754.254 98.1703L740.224 99.0472L731.69 99.5805L731.678 99.5813C729.011 99.7446 727.679 99.9531 726.991 100.12C726.831 101.867 726.809 105.106 726.932 111.955L726.933 112.044V112.133C726.933 116.348 727.062 120.539 727.236 123.839C727.323 125.492 727.42 126.869 727.511 127.883C727.579 128.628 727.627 128.968 727.633 129.034L728.368 131.975L731.41 144.142L718.871 144.398L673.142 145.331C673.14 145.331 673.139 145.331 673.137 145.331C641.005 146.001 598.498 146.067 563.246 145.699C545.619 145.516 529.751 145.223 517.868 144.841C511.937 144.65 506.927 144.434 503.16 144.194C501.286 144.074 499.628 143.942 498.278 143.794C497.331 143.69 495.568 143.49 494.016 142.99C484.523 139.992 476.008 132.414 472.038 123.342L472.029 123.32L472.019 123.298C470.283 119.277 468.062 110.284 466.04 100.867C463.92 90.999 461.747 79.3274 460.244 69.083C459.106 61.6195 458.26 54.3605 460.327 48.2466C462.821 40.8718 468.594 37.2594 473.757 34.6744C487.587 27.6233 515.464 20.7713 552.927 14.1525L552.94 14.1502L552.953 14.1479C556.238 13.5767 563.703 13.3547 572.133 13.2528C581.036 13.1453 592.222 13.1751 603.79 13.3175C626.789 13.6003 651.851 14.3341 663.551 15.3725Z"
    fill="currentColor" stroke="white" stroke-width="20" />
  <path
    d="M260.114 218.877L260.09 218.885L260.066 218.893C237.801 226.063 220.425 241.254 209.531 262.652C197.74 286.247 198.092 317.881 210.701 342.09L210.706 342.099L210.71 342.107C213.594 347.695 218.957 354.59 225.271 361.034C231.569 367.461 238.457 373.076 244.171 376.301C252.232 380.757 257.29 383.02 263.304 384.232C269.479 385.476 276.929 385.668 289.897 385.401L289.904 385.401L289.912 385.401L311.487 385.02L320.49 380.699C320.492 380.698 320.495 380.696 320.497 380.695C343.69 369.479 361.96 349.282 368.693 327.845C372.288 316.317 373.218 295.963 370.559 282.288L370.555 282.269L370.551 282.25C368.958 273.711 366.708 266.982 363.245 260.743C359.768 254.478 354.946 248.485 347.948 241.552L347.944 241.548C329.85 223.582 312.49 215.882 288.485 214.997C281.35 214.737 274.537 214.879 272.862 215.064C271.054 215.48 265.489 217.085 260.114 218.877ZM303 238.496L303.01 238.499C321.021 243.254 335.409 254.705 343.672 271.231L343.676 271.238L343.679 271.244C348.134 280.223 350.719 288.283 351.111 296.769C351.503 305.244 349.688 313.716 346.014 323.492C326.338 375.865 254 379.32 229.261 329.169L229.248 329.143C226.793 324.298 225.176 321.107 224.39 317.009C223.666 313.237 223.666 308.767 223.667 301.463C223.667 301.244 223.667 301.023 223.667 300.8C223.667 293.27 223.718 288.661 224.373 284.866C225.067 280.845 226.415 277.859 228.406 273.611L228.411 273.6L228.417 273.589C241.963 245.054 272.637 230.544 303 238.496Z"
    fill="white" stroke="white" stroke-width="10" />
  <path
    d="M1040.22 244.051L1040.21 244.056C1031.15 253.185 1025.5 260.599 1021.92 268.473C1018.34 276.322 1016.64 284.998 1016.06 296.911L1016.06 296.911C1015.17 315.152 1017.4 325.893 1025.13 341.355C1032.11 355.172 1041.54 365.936 1053.13 373.542C1071.29 385.261 1088.22 390.379 1104.3 389.28C1115.74 388.386 1133.87 383.603 1143.2 378.875C1149.68 375.578 1158.2 368.055 1166.03 358.957C1173.82 349.889 1180.34 339.943 1183.18 332.265L1183.18 332.254L1183.19 332.244C1185.72 325.491 1187.17 316.141 1187.32 306.177C1187.46 296.246 1186.3 286.094 1183.87 277.807L1183.87 277.804C1179.34 262.328 1169.22 246.798 1157.22 236.927L1157.21 236.92L1157.21 236.913C1141.71 224.045 1126.06 218.564 1099.8 217.529L1099.79 217.529L1099.78 217.529C1092.11 217.192 1088.11 217.117 1085.05 217.425C1082.19 217.712 1080.06 218.34 1076.1 219.769C1062.95 224.527 1052.76 231.382 1040.22 244.051ZM1116.87 239.798L1116.88 239.801L1116.89 239.803C1123.03 241.267 1127.98 242.971 1132.65 245.617C1137.31 248.256 1141.43 251.694 1146.07 256.331L1146.09 256.347L1146.1 256.364C1161.39 271.933 1169.1 292.523 1166.14 311.439L1166.14 311.444C1161.22 342.72 1133.22 366.333 1101.33 366.333H1101.32L1101.31 366.333C1075.87 366.19 1055.6 353.836 1044.33 331.448L1044.33 331.436C1042.1 326.971 1040.59 323.857 1039.81 320.155C1039.05 316.559 1039 312.6 1039 306.533C1039 289.782 1040.8 280.231 1046.64 269.138L1046.65 269.132C1053.73 255.718 1069.61 244.633 1087.08 239.845L1087.1 239.839L1087.12 239.833C1097.07 237.199 1105.91 237.235 1116.87 239.798Z"
    fill="white" stroke="white" stroke-width="10" />
</svg>